<svg xmlns="http://www.w3.org/2000/svg" viewBox="0 0 14.33 11.38"><defs><style>.cls-1{fill:none;stroke:#1f3a6a;stroke-linecap:round;stroke-linejoin:round;stroke-width:2px;}</style></defs><title>Ресурс 1</title><g id="Слой_2" data-name="Слой 2"><g id="Слой_1-2" data-name="Слой 1"><path class="cls-1" d="M4.71,8.2A6.11,6.11,0,0,1,9,6,6.11,6.11,0,0,1,13.33,8.2"/><path class="cls-1" d="M4.71,8.2A6.11,6.11,0,0,0,9,10.38,6.11,6.11,0,0,0,13.33,8.2"/><circle class="cls-1" cx="9.02" cy="8.2" r="1.01"/><path class="cls-1" d="M5.4,6.36h0a.65.65,0,0,1-.63-.5l0-.1S4.37,4.6,1,5.66"/><path class="cls-1" d="M5.4,6.36h0A.65.65,0,0,0,6,5.85l0-.1s.38-1.16,3.75-.1"/><path class="cls-1" d="M2.56,1.31C2,1.59,1.44,1.81,1,2V5.66c.44-.18,1-.4,1.56-.68,2.09-1,2.84.58,2.84.58V1.89S4.65.36,2.56,1.31Z"/><path class="cls-1" d="M8.24,1.31c.6.27,1.12.5,1.56.68V5.66c-.44-.18-1-.4-1.56-.68-2.09-1-2.84.58-2.84.58V1.89S6.15.36,8.24,1.31Z"/></g></g></svg>