<svg xmlns="http://www.w3.org/2000/svg" viewBox="0 0 18.73 15.07"><defs><style>.cls-1{fill:none;stroke:#1f3a6a;stroke-linecap:round;stroke-linejoin:round;stroke-width:2px;}</style></defs><title>Ресурс 6</title><g id="Слой_2" data-name="Слой 2"><g id="Слой_1-2" data-name="Слой 1"><path class="cls-1" d="M11.93,7.69h0a5.8,5.8,0,0,1,5.8,5.8v0a.58.58,0,0,1-.58.58H6.71a.58.58,0,0,1-.58-.58v0a5.8,5.8,0,0,1,5.8-5.8Z"/><circle class="cls-1" cx="11.93" cy="3.65" r="2.65"/><path class="cls-1" d="M4.83,11.89H1.39A.39.39,0,0,1,1,11.5H1A3.9,3.9,0,0,1,4.9,7.6h0a3.88,3.88,0,0,1,1.92.51"/><circle class="cls-1" cx="4.9" cy="4.87" r="1.78"/></g></g></svg>