<svg xmlns="http://www.w3.org/2000/svg" viewBox="0 0 17.65 13.23"><defs><style>.cls-1{fill:none;stroke:#1f3a6a;stroke-linecap:round;stroke-linejoin:round;stroke-width:2px;}</style></defs><title>Ресурс 3</title><g id="Слой_2" data-name="Слой 2"><g id="Слой_1-2" data-name="Слой 1"><rect class="cls-1" x="1" y="1" width="7.98" height="11.2" rx="0.61" ry="0.61"/><line class="cls-1" x1="2.24" y1="2.65" x2="7.74" y2="2.65"/><line class="cls-1" x1="2.24" y1="4.34" x2="7.74" y2="4.34"/><line class="cls-1" x1="2.24" y1="6.03" x2="7.74" y2="6.03"/><line class="cls-1" x1="2.24" y1="7.72" x2="6.51" y2="7.72"/><line class="cls-1" x1="2.24" y1="9.41" x2="6.51" y2="9.41"/><path class="cls-1" d="M13.1,5.27A3.41,3.41,0,0,0,9.54,8.51a3.06,3.06,0,0,0,.82,2.07L10,12.15a.06.06,0,0,0,.08.07l1.79-.68h0a3.85,3.85,0,0,0,1.25.2,3.41,3.41,0,0,0,3.55-3.24A3.41,3.41,0,0,0,13.1,5.27Z"/></g></g></svg>